<?xml version="1.0" encoding="UTF-8"?>
<svg version="1.1" xmlns="http://www.w3.org/2000/svg" width="875" height="837">
<path d="M0 0 C1.07765625 0.01804687 2.1553125 0.03609375 3.265625 0.0546875 C4.49539063 0.08949219 4.49539063 0.08949219 5.75 0.125 C5.75 1.445 5.75 2.765 5.75 4.125 C4.10602306 5.42648174 2.46179767 6.72765073 0.81640625 8.02734375 C-2.32240004 11.21361781 -4.22797411 15.04281249 -6.32470703 18.94750977 C-8.14983651 22.31022389 -9.96820034 25.18373685 -12.625 27.9375 C-15.98710631 31.53650269 -16.56489636 35.36486434 -17.25 40.125 C-17.45625 41.135625 -17.6625 42.14625 -17.875 43.1875 C-17.99875 43.826875 -18.1225 44.46625 -18.25 45.125 C-18.91 45.125 -19.57 45.125 -20.25 45.125 C-20.39695312 45.7334375 -20.54390625 46.341875 -20.6953125 46.96875 C-22.90585728 55.60766062 -26.03159229 63.82379952 -29.25 72.125 C-32.5625 72 -32.5625 72 -36.25 71.125 C-45.23158635 59.74960066 -43.77342405 31.43148316 -42.67724609 17.48779297 C-41.84838724 12.9039667 -39.48612181 10.15510151 -36 7.25 C-35.4225 6.87875 -34.845 6.5075 -34.25 6.125 C-33.26 6.455 -32.27 6.785 -31.25 7.125 C-31.05372609 8.70726965 -30.86834462 10.29089271 -30.6875 11.875 C-30.58308594 12.75671875 -30.47867187 13.6384375 -30.37109375 14.546875 C-30.251815 17.08635811 -30.63921501 18.68627004 -31.25 21.125 C-31.70571471 24.86508092 -31.9945572 28.62091978 -32.3125 32.375 C-32.40337891 33.38691406 -32.49425781 34.39882813 -32.58789062 35.44140625 C-33.06964895 41.02690507 -33.35058192 46.5192341 -33.25 52.125 C-32.88648438 50.4234375 -32.88648438 50.4234375 -32.515625 48.6875 C-32.17763478 47.16654402 -31.8390618 45.64571746 -31.5 44.125 C-31.34273438 43.38121094 -31.18546875 42.63742187 -31.0234375 41.87109375 C-29.80263453 36.4713883 -27.8509291 31.98887068 -25.25 27.125 C-24.61177747 25.80661367 -23.98023452 24.48497256 -23.35546875 23.16015625 C-12.11633793 -0.26339865 -12.11633793 -0.26339865 0 0 Z " fill="#010101" transform="translate(385.25,369.875)"/>
<path d="M0 0 C2.31051195 2.11577632 4.17359889 4.46117292 6 7 C6.70125 6.195625 7.4025 5.39125 8.125 4.5625 C11.26291593 1.76566189 12.88758763 1.28691249 17 1 C18.5789235 5.89466286 17.46355703 10.2156235 16 15 C15.66025146 15.57967529 15.32050293 16.15935059 14.97045898 16.7565918 C13.71823619 19.65135286 13.77381447 21.92907565 13.8046875 25.078125 C13.81435547 26.81835938 13.81435547 26.81835938 13.82421875 28.59375 C13.84097656 29.8003125 13.85773438 31.006875 13.875 32.25 C13.88402344 33.47203125 13.89304687 34.6940625 13.90234375 35.953125 C13.92590487 38.96894782 13.95880294 41.98437492 14 45 C13.01 45.33 12.02 45.66 11 46 C7.42869967 43.95925695 5.2949791 42.44246864 3 39 C2.55058745 36.61700383 2.18393057 34.21774516 1.875 31.8125 C1.70742188 30.54019531 1.53984375 29.26789063 1.3671875 27.95703125 C1.24601562 26.98121094 1.12484375 26.00539063 1 25 C0.40832031 25.74765625 -0.18335938 26.4953125 -0.79296875 27.265625 C-1.58316406 28.25046875 -2.37335938 29.2353125 -3.1875 30.25 C-4.35345703 31.71179688 -4.35345703 31.71179688 -5.54296875 33.203125 C-7.855712 35.83575483 -10.19803053 37.90972082 -13 40 C-15.91517292 38.92598892 -17.77810176 38.22189824 -20 36 C-20.1727863 33.3349909 -20.23225461 30.78672179 -20.1875 28.125 C-20.18685547 27.40441406 -20.18621094 26.68382812 -20.18554688 25.94140625 C-20.15701391 22.49842834 -20.07655309 19.28994624 -19 16 C-18.34 16 -17.68 16 -17 16 C-16.7525 15.154375 -16.505 14.30875 -16.25 13.4375 C-14.48913734 8.59512767 -12.71707071 4.40076821 -8.625 1.0625 C-5.30056295 -0.28310547 -3.54935121 -0.72435739 0 0 Z M-5 9 C-5.81837442 10.41328129 -6.62946219 11.83078346 -7.4375 13.25 C-7.88996094 14.03890625 -8.34242188 14.8278125 -8.80859375 15.640625 C-11.08579075 20.15022168 -11.09678344 23.96726122 -11 29 C-7.11985064 27.47940093 -5.26093438 25.13921469 -2.75 21.875 C-1.69039063 20.50988281 -1.69039063 20.50988281 -0.609375 19.1171875 C-0.07828125 18.41851562 0.4528125 17.71984375 1 17 C-0.55194754 13.67240077 -2.30621949 11.51419515 -5 9 Z " fill="#010101" transform="translate(393,395)"/>
<path d="M0 0 C2.2294565 2.2294565 3.59926107 4.19852214 5 7 C5.680625 6.195625 6.36125 5.39125 7.0625 4.5625 C10.48477302 1.57711289 12.5428126 1.26218749 17 1 C18.15666049 4.46998148 17.78653952 5.4216245 16.6875 8.8125 C16.42324219 9.64394531 16.15898438 10.47539062 15.88671875 11.33203125 C15.278265 13.16275331 14.63279973 14.98146368 13.95678711 16.78833008 C12.97857807 20.07190748 12.76950357 22.64184619 12.8046875 26.0546875 C12.81435547 27.71757812 12.81435547 27.71757812 12.82421875 29.4140625 C12.84097656 30.55617188 12.85773437 31.69828125 12.875 32.875 C12.88402344 34.0403125 12.89304687 35.205625 12.90234375 36.40625 C12.92582568 39.27104577 12.95866859 42.13541535 13 45 C8.57158244 44.23758315 6.1635108 43.33001137 3 40 C2.15797832 37.29863353 1.59658127 35.00673874 1.1875 32.25 C1.06697266 31.55261719 0.94644531 30.85523438 0.82226562 30.13671875 C0.52960082 28.42755631 0.26223105 26.71409562 0 25 C-0.58007812 25.74765625 -1.16015625 26.4953125 -1.7578125 27.265625 C-9.51669596 37.04745167 -9.51669596 37.04745167 -15 40 C-17.81020518 38.41925959 -19.20949608 37.60247663 -21 35 C-22.41947626 25.86803604 -20.47647462 18.37900773 -16.125 10.375 C-15.38636719 8.99441406 -15.38636719 8.99441406 -14.6328125 7.5859375 C-10.71989348 1.3889222 -7.3872593 -0.76419924 0 0 Z M-6 9 C-9.42120706 15.39400348 -12.45135429 21.55265421 -12 29 C-7.71095765 27.4114658 -5.67654474 24.56872632 -3 21 C-3 20.34 -3 19.68 -3 19 C-2.34 19 -1.68 19 -1 19 C-0.11443256 17.31026274 -0.11443256 17.31026274 0 15 C-1.71165977 11.72388597 -1.71165977 11.72388597 -4 9 C-4.66 9 -5.32 9 -6 9 Z " fill="#010101" transform="translate(518,386)"/>
<path d="M0 0 C0 1.65 0 3.3 0 5 C-39.83584406 8.11463719 -79.67267656 11.21675304 -119.51156616 14.29220581 C-123.41821749 14.59384195 -127.3248111 14.89620908 -131.23135376 15.19924927 C-153.4801606 16.92464203 -175.72899943 18.58540765 -198 20 C-198 18.35 -198 16.7 -198 15 C-179.10971135 12.9054072 -160.15324496 11.58755465 -141.20304608 10.17213392 C-136.42340828 9.81470034 -131.64396227 9.45471842 -126.86448669 9.09512329 C-118.86055193 8.49332461 -110.85647058 7.89350752 -102.85229492 7.29492188 C-93.60526832 6.60336732 -84.35848014 5.90869167 -75.11181122 5.21237218 C-66.18237183 4.54000736 -57.2527753 3.8697524 -48.32310295 3.20048904 C-44.53409719 2.91647689 -40.74514699 2.63173926 -36.9562397 2.34641647 C-32.50666027 2.01144273 -28.05694603 1.67832009 -23.60712051 1.346632 C-21.97563455 1.22472545 -20.34419582 1.10218484 -18.71280861 0.97896385 C-16.48681058 0.81093781 -14.26065275 0.64521294 -12.03443909 0.48007202 C-10.78926293 0.38680319 -9.54408678 0.29353436 -8.26117802 0.19743919 C-5.49507664 0.02997307 -2.7696909 -0.04033455 0 0 Z " fill="#010101" transform="translate(539,438)"/>
<path d="M0 0 C0.07427838 3.34252724 0.06546953 5.8035914 -1 9 C-0.030625 8.979375 0.93875 8.95875 1.9375 8.9375 C5 9 5 9 6 10 C6.1875 12.4375 6.1875 12.4375 6 15 C3.57869669 17.42130331 2.19888623 17.52840504 -1.125 18.125 C-2.03507812 18.29257812 -2.94515625 18.46015625 -3.8828125 18.6328125 C-4.58148438 18.75398438 -5.28015625 18.87515625 -6 19 C-10.43786807 31.79726867 -10.43786807 31.79726867 -10 45 C-5.25830365 44.72107669 -3.33611545 42.64603976 -0.33203125 39.27734375 C1 38 1 38 3 38 C1.97211952 44.40448605 -1.14518962 49.40326547 -4.875 54.625 C-7 56 -7 56 -10.5 55.9375 C-15.80916604 54.51540195 -15.80916604 54.51540195 -18 52 C-20.3116135 45.30088325 -19.84791213 40.03932291 -18.6875 33.125 C-18.54376953 32.17625 -18.40003906 31.2275 -18.25195312 30.25 C-17.17597535 23.3519507 -17.17597535 23.3519507 -16 21 C-18.31 21.33 -20.62 21.66 -23 22 C-22.4375 19.75 -22.4375 19.75 -21 17 C-19.24924753 16.05978108 -17.49644572 15.12256293 -15.72265625 14.2265625 C-13.60697203 12.72015696 -13.05577508 11.44101522 -12.0625 9.0625 C-10.03323294 4.32163592 -5.44199715 0 0 0 Z " fill="#010101" transform="translate(462,378)"/>
<path d="M0 0 C1.14707435 3.44122304 1.36502708 6.50766257 1.625 10.125 C1.72039062 11.38570313 1.81578125 12.64640625 1.9140625 13.9453125 C1.94242187 14.95335937 1.97078125 15.96140625 2 17 C1 18 1 18 -2.5 18.125 C-6 18 -6 18 -7 17 C-7.23287008 15.31816052 -7.41264166 13.6287584 -7.5625 11.9375 C-7.68818359 10.55884766 -7.68818359 10.55884766 -7.81640625 9.15234375 C-7.87699219 8.44207031 -7.93757813 7.73179687 -8 7 C-10.46790431 7.9553178 -11.72944207 8.45085911 -12.921875 10.87109375 C-13.02863351 13.78026308 -12.06237814 14.82291844 -10.25 17.0625 C-9.71890625 17.73410156 -9.1878125 18.40570313 -8.640625 19.09765625 C-7.04732947 21.00810517 -7.04732947 21.00810517 -5.296875 22.62109375 C-4 24 -4 24 -4 26 C-3.34 26 -2.68 26 -2 26 C-0.41733738 30.15448937 0.48395433 33.54762014 0 38 C-2.64711205 42.48233031 -5.60860167 43.17958385 -10.43359375 44.46484375 C-15.83505196 45.59117522 -20.02417318 45.4125221 -25 43 C-22.44421173 39.87625878 -19.76215271 39.22845803 -16 38 C-13.69833325 36.48446847 -13.69833325 36.48446847 -12 35 C-12.12247248 30.95840809 -13.56268062 29.22680257 -16.375 26.5625 C-19.47199848 23.61236949 -21.67020168 21.16670139 -23 17 C-22.43179167 11.65884171 -19.32562522 8.88022299 -15.36328125 5.61328125 C-10.77693715 2.48243809 -5.60814329 0 0 0 Z " fill="#010101" transform="translate(436,390)"/>
<path d="M0 0 C-0.26041667 2.01822917 -0.52083333 4.03645833 -0.78125 6.0546875 C-1.0372485 8.00498344 -1.0372485 8.00498344 -1 10 C-0.46890625 9.36191406 0.0621875 8.72382813 0.609375 8.06640625 C1.66898437 6.82697266 1.66898437 6.82697266 2.75 5.5625 C3.44609375 4.73878906 4.1421875 3.91507812 4.859375 3.06640625 C7.01162743 0.98877571 8.048156 0.21981817 11 0 C13.25984425 1.73834173 14.39800928 3.59701393 16 6 C15.98828125 8.00390625 15.98828125 8.00390625 15 10 C12.41796875 11.52734375 12.41796875 11.52734375 9.1875 12.9375 C2.86462114 15.70231548 -0.8084175 19.2877268 -3.47265625 25.75390625 C-4.63936643 30.7232274 -4.20576802 35.93200991 -4 41 C-5.98 41.495 -5.98 41.495 -8 42 C-12.74361961 36.30765646 -14.26680151 33.49331094 -14 26 C-13.58114772 23.4684463 -13.10032107 20.94647387 -12.5625 18.4375 C-11.42241753 13.08210346 -11.42241753 13.08210346 -10.55078125 7.6796875 C-10 5 -10 5 -7.625 2.6875 C-5.02602619 1.01673112 -3.12249015 0 0 0 Z M-4 13 C-3 15 -3 15 -3 15 Z " fill="#010101" transform="translate(482,388)"/>
<path d="" fill="#000000" transform="translate(0,0)"/>
<path d="M0 0 C2 1 2 1 2 1 Z " fill="#000000" transform="translate(354,388)"/>
<path d="" fill="#000000" transform="translate(0,0)"/>
<path d="" fill="#000000" transform="translate(0,0)"/>
<path d="" fill="#000000" transform="translate(0,0)"/>
<path d="" fill="#000000" transform="translate(0,0)"/>
<path d="" fill="#000000" transform="translate(0,0)"/>
<path d="" fill="#000000" transform="translate(0,0)"/>
</svg>
