<svg width="21" height="29" viewBox="0 0 21 29" fill="none" xmlns="http://www.w3.org/2000/svg">
<path d="M1 5.66042C1 3.88708 1 3.00042 1.34517 2.32275C1.64876 1.72693 2.13318 1.24251 2.729 0.938917C3.40667 0.59375 4.29333 0.59375 6.06667 0.59375H14.9333C16.7067 0.59375 17.5933 0.59375 18.271 0.938917C18.8668 1.24251 19.3512 1.72693 19.6548 2.32275C20 3.00042 20 3.88708 20 5.66042V26.7267C20 27.4962 20 27.8809 19.8401 28.0915C19.771 28.1831 19.6828 28.2586 19.5816 28.3127C19.4805 28.3668 19.3688 28.3983 19.2542 28.405C18.9898 28.4208 18.67 28.2071 18.0303 27.7812L10.5 22.7604L2.96967 27.7796C2.33 28.2071 2.01017 28.4208 1.74417 28.405C1.62991 28.3981 1.5185 28.3665 1.41764 28.3124C1.31677 28.2582 1.22885 28.1829 1.15992 28.0915C1 27.8809 1 27.4962 1 26.7267V5.66042Z" fill="white" stroke="black" stroke-linecap="round" stroke-linejoin="round"/>
</svg>
