<svg width="275" height="133" viewBox="0 0 275 133" fill="none" xmlns="http://www.w3.org/2000/svg">
<path fill-rule="evenodd" clip-rule="evenodd" d="M54.6045 1.82656C45.8444 5.28389 25.4031 42.4456 19.1203 66.3365L15.8365 78.8178L16.7109 62.7496C17.1922 53.9128 18.4294 38.8182 19.4614 29.206C20.4933 19.5953 21.0512 11.2047 20.7015 10.5604C19.0278 7.48685 14.3319 10.0845 9.4221 16.8011L4.00356 24.2119L4.94592 49.1746C6.79594 98.192 7.7672 104.464 13.9836 107.522C19.7895 110.377 21.1813 109.564 23.7236 101.83C29.0526 85.628 32.2583 76.7303 36.9845 65.0244C39.7003 58.2969 47.3345 41.491 47.6959 40.7109C48.4185 39.1507 51.2658 34.7274 55.5512 27.5584C59.8352 20.3895 65.7625 12.3686 68.7225 9.73506C75.955 3.29936 74.8218 -0.014444 65.446 0.152494C61.6462 0.219581 56.7668 0.973143 54.6045 1.82656ZM162.728 19.2786C158.82 21.6095 156.216 24.7408 154.295 29.4182C152.303 34.2625 150.128 36.8087 146.63 38.386C142.329 40.3253 138.752 44.5487 138.752 47.6862C138.752 48.2666 141.022 48.2822 143.799 47.7189C148.599 46.747 148.785 46.8733 147.599 50.2761C145.91 55.1235 143.917 72.2729 143.858 82.4561C143.815 89.9122 144.3 91.2492 148.531 95.3275C155.039 101.606 159.16 101.212 165.016 93.758C170.098 87.288 175.868 73.897 174.301 72.2058C173.791 71.6551 170.169 74.6132 166.252 78.7772C160.197 85.2145 158.794 86.0476 156.891 84.3424C153.101 80.9474 154.496 69.1042 160.829 50.9142C163.035 44.5814 168.797 40.5937 175.746 40.5937C178.167 40.5937 179.425 39.4813 180.052 36.7822C181.304 31.3996 179.815 29.6725 173.922 29.6725C169.591 29.6725 168.962 29.2481 169.875 26.9422C170.471 25.4413 171.264 22.2819 171.64 19.9214C172.47 14.7011 170.626 14.5669 162.728 19.2786ZM240.854 29.7162C236.392 31.1593 231.253 35.5091 231.253 37.8415C231.253 38.6356 228.949 43.0322 226.132 47.6129C221.598 54.9847 220.913 57.4419 220.154 69.0496C219.309 81.9896 219.349 82.2018 223.302 85.5593C225.505 87.4284 228.105 88.9589 229.082 88.9589C230.839 88.9589 239.769 79.2234 247.683 68.6767C249.937 65.6734 251.32 64.1491 250.756 65.2896C250.191 66.4301 250.194 72.0326 250.759 77.7413C251.665 86.8714 252.391 88.7296 256.799 93.2182C259.555 96.0249 262.972 98.3199 264.39 98.3199C266.734 98.3199 266.957 96.5741 266.816 79.2079C266.684 62.6857 267.097 59.0161 269.865 52.1342C271.625 47.7548 273.501 41.2333 274.033 37.6418L275 31.1125L269.664 31.7475C266.357 32.1407 262.71 34.055 260.076 36.7806C256.916 40.0476 255.823 40.5375 255.823 38.684C255.823 36.2876 247.961 27.9703 245.956 28.2465C245.421 28.3198 243.125 28.9813 240.854 29.7162ZM191.506 34.1065C185.193 38.2721 183.892 40.6233 183.924 47.8094C183.938 51.3495 183.405 55.1984 182.739 56.3623C182.071 57.5277 181.405 59.5466 181.257 60.8478C181.111 62.1505 180.517 67.1212 179.938 71.8953C179.06 79.1439 179.396 81.6526 181.974 87.107C184.248 91.9186 185.937 93.6394 188.386 93.6394C191.495 93.6394 191.729 92.9654 191.974 83.3345C192.12 77.5946 193.288 70.6394 194.608 67.6361C198.266 59.3141 205.764 51.9252 212.709 49.7987C221.618 47.0715 223.019 44.6938 219.507 38.2674C217.944 35.4092 215.662 32.6555 214.433 32.1469C211.15 30.7864 204.584 36.4998 199.285 45.3241C196.727 49.5865 194.475 53.075 194.283 53.075C194.089 53.075 195.446 48.5692 197.296 43.0634C201.551 30.3979 200.227 28.3494 191.506 34.1065ZM127.912 34.729C116.55 38.9336 114.495 40.1225 108.761 45.814C105.382 49.1684 102.618 53.2544 102.618 54.8957C102.618 59.6464 107.939 69.6175 112.598 73.6006C114.951 75.6117 117.287 79.0659 117.79 81.2751C118.569 84.6996 117.87 85.8869 113.035 89.3396C109.917 91.5675 105.486 93.6207 103.186 93.9046C96.9036 94.6785 98.1552 97.362 105.516 98.9003C119.368 101.794 134.416 94.8579 134.416 85.578C134.416 79.9598 129.53 70.4007 122.321 61.9118C115.053 53.3543 114.521 47.0294 120.808 43.9371C124.21 42.2646 124.298 42.3941 124.298 49.081C124.298 59.0489 125.317 60.8759 130.872 60.8759C133.522 60.8759 136.003 60.3314 136.384 59.6652C137.779 57.2282 135.458 32.7912 133.848 32.9582C132.967 33.0502 130.296 33.8475 127.912 34.729ZM62.4151 41.5048C59.5158 43.6968 53.9093 52.8082 47.8187 65.2256C46.6943 67.5191 45.4874 74.3245 45.1391 80.3468C44.5494 90.5144 44.7676 91.5644 48.1873 94.9999C53.707 100.545 57.9013 98.5399 67.5894 85.7184L75.8798 74.7473L76.6877 86.77C77.4726 98.4307 77.6691 98.9502 83.1917 103.994C92.2467 112.262 92.5011 111.848 92.5011 88.8731C92.5011 71.7736 92.9694 67.3974 95.4163 61.5998C97.0192 57.8008 98.7334 51.5195 99.2262 47.6394L100.121 40.5874L95.227 41.5266C92.5358 42.043 88.6782 44.3521 86.6547 46.6565L82.9764 50.8471L79.0812 44.9403C75.9246 40.1552 74.2827 39.0335 70.4338 39.0335C67.8206 39.0335 64.2117 40.1459 62.4151 41.5048ZM246.898 48.6956L249.821 53.6788L242.516 62.3471C233.13 73.4852 232.132 73.8159 233.44 65.352C234.593 57.8913 240.659 43.714 242.698 43.714C243.401 43.714 245.291 45.956 246.898 48.6956ZM73.1279 59.6043C75.4029 64.355 75.3855 64.4081 69.1431 71.5225C57.4114 84.8915 56.1641 84.8806 59.8395 71.4382C62.5495 61.528 67.4362 52.5602 69.4091 53.8769C70.1968 54.4027 71.8705 56.9801 73.1279 59.6043ZM270.277 60.7479C270.277 63.7949 272.086 67.0588 273.319 66.235C275.465 64.8044 274.772 59.3157 272.445 59.3157C271.252 59.3157 270.277 59.96 270.277 60.7479ZM245.706 110.115C244.514 110.397 228.254 111.391 209.573 112.322C190.892 113.255 152.844 115.362 125.021 117.003C97.1984 118.646 59.8005 120.755 41.9146 121.691C0.547785 123.855 0 123.949 0 128.756C0 132.417 0.258714 132.505 9.03331 131.803C14.0024 131.405 31.725 130.369 48.4185 129.501C65.1121 128.632 88.8516 127.235 101.173 126.394C113.495 125.553 143.413 123.79 167.658 122.474C191.904 121.159 223.448 119.396 237.757 118.558C252.065 117.719 266.212 117.036 269.193 117.037C274.011 117.042 274.613 116.61 274.613 113.142C274.613 109.249 274.585 109.241 261.243 109.422C253.889 109.522 246.898 109.834 245.706 110.115Z" fill="white"/>
</svg>
