<svg width="119" height="51" viewBox="0 0 119 51" fill="none" xmlns="http://www.w3.org/2000/svg">
<path fill-rule="evenodd" clip-rule="evenodd" d="M23.9303 0.649119C20.1714 1.98491 11.4002 16.3428 8.70433 25.5734L7.29529 30.3957L7.6705 24.1876C7.87701 20.7734 8.40789 14.9413 8.85069 11.2275C9.2935 7.51433 9.53289 4.27251 9.38281 4.02355C8.66464 2.83605 6.64968 3.8397 4.54294 6.43472L2.21789 9.29799L2.62225 18.9427C3.41608 37.8812 3.83284 40.3044 6.50022 41.4859C8.99147 42.589 9.58871 42.275 10.6796 39.2869C12.9662 33.0269 14.3417 29.5892 16.3697 25.0664C17.535 22.4672 20.8108 15.974 20.9659 15.6726C21.276 15.0698 22.4977 13.3608 24.3365 10.591C26.1747 7.82115 28.7181 4.72219 29.9882 3.70468C33.0916 1.21815 32.6054 -0.0621769 28.5823 0.00232197C26.9518 0.0282421 24.8581 0.319391 23.9303 0.649119ZM70.3252 7.39196C68.6482 8.29253 67.5307 9.50234 66.7065 11.3095C65.8519 13.1812 64.9185 14.1649 63.4177 14.7744C61.572 15.5236 60.0371 17.1554 60.0371 18.3676C60.0371 18.5919 61.0114 18.5979 62.2027 18.3803C64.2623 18.0047 64.3423 18.0536 63.8332 19.3682C63.1088 21.2411 62.2536 27.867 62.2282 31.8015C62.2096 34.6822 62.4179 35.1988 64.2332 36.7745C67.0258 39.2001 68.794 39.0482 71.3069 36.1681C73.4875 33.6683 75.9632 28.4945 75.291 27.8411C75.072 27.6283 73.5179 28.7712 71.8372 30.3801C69.2393 32.8672 68.6371 33.1891 67.8203 32.5302C66.1942 31.2186 66.7927 26.6427 69.5103 19.6148C70.4567 17.1681 72.9293 15.6273 75.9111 15.6273C76.9499 15.6273 77.4895 15.1975 77.7587 14.1547C78.2957 12.0751 77.6569 11.4078 75.1285 11.4078C73.2698 11.4078 73 11.2438 73.392 10.3529C73.6475 9.77299 73.988 8.55233 74.1492 7.64031C74.5052 5.62336 73.7139 5.57153 70.3252 7.39196ZM103.848 11.4246C101.934 11.9822 99.7284 13.6628 99.7284 14.564C99.7284 14.8708 98.7399 16.5695 97.5312 18.3393C95.5857 21.1875 95.2917 22.1369 94.9661 26.6217C94.6033 31.6212 94.6207 31.7032 96.3168 33.0004C97.262 33.7226 98.3777 34.3139 98.7969 34.3139C99.5511 34.3139 103.383 30.5525 106.779 26.4776C107.745 25.3172 108.339 24.7283 108.097 25.1689C107.855 25.6096 107.856 27.7742 108.098 29.9798C108.487 33.5074 108.799 34.2253 110.69 35.9595C111.873 37.0439 113.339 37.9306 113.947 37.9306C114.953 37.9306 115.049 37.2561 114.989 30.5464C114.931 24.1629 115.109 22.7451 116.296 20.0862C117.052 18.3941 117.857 15.8745 118.085 14.4868L118.5 11.9641L116.21 12.2095C114.791 12.3614 113.227 13.101 112.096 14.1541C110.74 15.4163 110.271 15.6056 110.271 14.8895C110.271 13.9636 106.898 10.7501 106.038 10.8568C105.808 10.8851 104.823 11.1407 103.848 11.4246ZM82.6736 13.1209C79.9646 14.7304 79.4065 15.6388 79.4201 18.4152C79.4263 19.783 79.1975 21.2701 78.9116 21.7197C78.625 22.17 78.3391 22.95 78.2759 23.4528C78.2132 23.9561 77.9583 25.8766 77.7097 27.7211C77.3332 30.5217 77.4771 31.491 78.5835 33.5984C79.559 35.4574 80.284 36.1223 81.3346 36.1223C82.6686 36.1223 82.7691 35.8619 82.8745 32.1408C82.9371 29.9231 83.4382 27.2359 84.0045 26.0755C85.5741 22.8602 88.7916 20.0054 91.7716 19.1838C95.5943 18.1301 96.1953 17.2115 94.6883 14.7286C94.0178 13.6242 93.0386 12.5603 92.5114 12.3638C91.1024 11.8382 88.2849 14.0456 86.0114 17.455C84.9136 19.1018 83.9474 20.4497 83.8649 20.4497C83.7818 20.4497 84.3642 18.7088 85.158 16.5815C86.9838 11.6881 86.4157 10.8966 82.6736 13.1209ZM55.3857 13.3614C50.5105 14.9859 49.6286 15.4453 47.1684 17.6443C45.7184 18.9403 44.5326 20.519 44.5326 21.1531C44.5326 22.9886 46.8155 26.8411 48.815 28.38C49.8246 29.157 50.8268 30.4916 51.0426 31.3451C51.3769 32.6683 51.0767 33.127 49.0022 34.461C47.6645 35.3218 45.7631 36.115 44.7764 36.2247C42.0804 36.5237 42.6175 37.5605 45.7761 38.1549C51.7199 39.2731 58.1765 36.5931 58.1765 33.0076C58.1765 30.837 56.0803 27.1437 52.9869 23.8639C49.868 20.5576 49.6398 18.1138 52.3376 16.9191C53.7975 16.2729 53.8353 16.3229 53.8353 18.9065C53.8353 22.7577 54.2725 23.4636 56.6559 23.4636C57.7933 23.4636 58.8575 23.2532 59.0212 22.9959C59.6197 22.0543 58.6237 12.6127 57.9328 12.6772C57.5551 12.7128 56.409 13.0208 55.3857 13.3614ZM27.2818 15.9793C26.0377 16.8263 23.632 20.3466 21.0186 25.1442C20.5361 26.0303 20.0182 28.6597 19.8688 30.9865C19.6157 34.9149 19.7094 35.3206 21.1767 36.6479C23.5452 38.7902 25.3449 38.0156 29.502 33.0619L33.0593 28.8231L33.406 33.4682C33.7428 37.9734 33.8271 38.1742 36.1968 40.123C40.0822 43.3172 40.1914 43.1575 40.1914 34.2807C40.1914 27.6741 40.3923 25.9833 41.4423 23.7433C42.1301 22.2755 42.8656 19.8487 43.0771 18.3495L43.461 15.6249L41.361 15.9878C40.2063 16.1873 38.551 17.0794 37.6828 17.9698L36.1044 19.5889L34.433 17.3067C33.0786 15.4579 32.374 15.0245 30.7225 15.0245C29.6012 15.0245 28.0526 15.4543 27.2818 15.9793ZM106.442 18.7576L107.696 20.6829L104.561 24.0321C100.534 28.3354 100.106 28.4632 100.667 25.193C101.162 22.3105 103.765 16.8329 104.64 16.8329C104.941 16.8329 105.752 17.6991 106.442 18.7576ZM31.8785 22.9723C32.8547 24.8078 32.8472 24.8283 30.1687 27.5771C25.1347 32.7424 24.5995 32.7382 26.1766 27.5445C27.3394 23.7156 29.4363 20.2507 30.2828 20.7595C30.6208 20.9626 31.339 21.9584 31.8785 22.9723ZM116.473 23.4142C116.473 24.5914 117.25 25.8525 117.779 25.5342C118.7 24.9815 118.402 22.8608 117.404 22.8608C116.892 22.8608 116.473 23.1098 116.473 23.4142ZM105.93 42.4878C105.419 42.5969 98.4416 42.9808 90.4258 43.3407C82.41 43.7012 66.0838 44.515 54.1454 45.1491C42.207 45.7838 26.1599 46.5988 18.4852 46.9605C0.735049 47.7966 0.5 47.8327 0.5 49.6899C0.5 51.1047 0.611012 51.1384 4.37611 50.8672C6.50828 50.7135 14.1129 50.3132 21.276 49.9781C28.439 49.6423 38.6254 49.1022 43.9124 48.7773C49.1995 48.4524 62.0371 47.7712 72.4406 47.2631C82.8441 46.7549 96.3795 46.0738 102.519 45.7501C108.659 45.4258 114.729 45.1618 116.008 45.1624C118.076 45.1642 118.334 44.9972 118.334 43.6572C118.334 42.1532 118.322 42.1502 112.597 42.2201C109.442 42.2587 106.442 42.3793 105.93 42.4878Z" fill="black"/>
</svg>
