<?xml version="1.0" encoding="UTF-8"?>
<svg version="1.1" xmlns="http://www.w3.org/2000/svg" width="138" height="71">
<path d="M0 0 C0 1.32 0 2.64 0 4 C1.32 4.66 2.64 5.32 4 6 C3.875 7.875 3.875 7.875 3 10 C2.05125 10.2475 1.1025 10.495 0.125 10.75 C-3.01401834 11.64314283 -3.01401834 11.64314283 -4.02734375 13.6875 C-5.55586242 17.70271323 -6.46649183 21.73193467 -7 26 C-4.36 24.35 -1.72 22.7 1 21 C0.59791618 26.62917348 -1.28930302 29.00386479 -5 33 C-7.54520269 32.65605369 -9.51716013 32.31591843 -11.68359375 30.8984375 C-13.73928002 27.9338573 -13.08471476 25.45564322 -12.75 21.9375 C-12.64171875 20.68839844 -12.5334375 19.43929687 -12.421875 18.15234375 C-12 15 -12 15 -11 13 C-12.32 13 -13.64 13 -15 13 C-15 14.65 -15 16.3 -15 18 C-16.32 18.33 -17.64 18.66 -19 19 C-18.505 19.721875 -18.01 20.44375 -17.5 21.1875 C-15.89410293 24.198557 -15.47197787 25.65585985 -16 29 C-17.87860833 31.5048111 -18.96101874 31.98700625 -22 33 C-25.68382769 33.13156527 -28.49053585 33.16982138 -32 32 C-32 31.34 -32 30.68 -32 30 C-29.69 29.01 -27.38 28.02 -25 27 C-25.43444493 24.06749674 -26.10087941 22.88077888 -28.0625 20.5625 C-30 18 -30 18 -30.625 15.5 C-29.85226022 12.40904087 -28.37565454 10.9786678 -25.8671875 9.0703125 C-22.71032008 7.26072741 -19.56120563 6.67540107 -16 6 C-15.34 7.32 -14.68 8.64 -14 10 C-10.67279371 7.54837431 -8.73621329 5.72045706 -7 2 C-4 0 -4 0 0 0 Z M-22 11 C-22.99 12.485 -22.99 12.485 -24 14 C-23.01 14.99 -22.02 15.98 -21 17 C-21 15.02 -21 13.04 -21 11 C-21.33 11 -21.66 11 -22 11 Z " fill="#000000" transform="translate(84,16)"/>
<path d="M0 0 C1.22589844 0.01353516 1.22589844 0.01353516 2.4765625 0.02734375 C3.41628906 0.04474609 3.41628906 0.04474609 4.375 0.0625 C3.67753352 3.64732771 2.45873044 4.97819196 -0.17578125 7.484375 C-8.44558372 16.48976637 -13.67067325 30.66473467 -17.625 42.0625 C-20 42.1875 -20 42.1875 -22.625 42.0625 C-27.23880094 37.44869906 -26.15430416 27.79222715 -26.5 21.5625 C-26.58507813 20.44746094 -26.67015625 19.33242188 -26.7578125 18.18359375 C-27.23880132 9.01201141 -27.23880132 9.01201141 -24.3203125 5.28125 C-21.625 3.0625 -21.625 3.0625 -18.625 3.0625 C-18.625 9.0025 -18.625 14.9425 -18.625 21.0625 C-17.75875 19.2475 -16.8925 17.4325 -16 15.5625 C-8.16967283 -0.11670961 -8.16967283 -0.11670961 0 0 Z " fill="#000000" transform="translate(37.625,9.9375)"/>
<path d="M0 0 C-0.33 1.32 -0.66 2.64 -1 4 C-13.44916746 4.65776569 -25.89860731 5.31009477 -38.3484087 5.95575714 C-44.13125693 6.25582835 -49.91400062 6.55767116 -55.6965332 6.86376953 C-61.29196672 7.159895 -66.88763795 7.45109684 -72.48349571 7.73908997 C-74.60306377 7.84900253 -76.72254538 7.9605973 -78.84192848 8.07402039 C-91.90912415 8.77199742 -104.91382535 9.15077548 -118 9 C-118 8.01 -118 7.02 -118 6 C-114.67790703 4.33895352 -110.93861774 4.611405 -107.27783203 4.42749023 C-106.37332306 4.37857635 -105.46881409 4.32966248 -104.53689575 4.27926636 C-101.52742414 4.11781518 -98.51765389 3.96298719 -95.5078125 3.80859375 C-93.4062272 3.69816184 -91.30465469 3.58748619 -89.20309448 3.47657776 C-84.77958768 3.24420269 -80.35592378 3.0151527 -75.93212891 2.78833008 C-70.3175713 2.50014604 -64.70350735 2.20339026 -59.08954048 1.90394497 C-54.73626806 1.67283028 -50.38274594 1.44671706 -46.02914047 1.22197151 C-43.963437 1.11470679 -41.8978127 1.00590405 -39.83227921 0.89541435 C-26.54085045 0.18764249 -13.31029635 -0.13873543 0 0 Z " fill="#000000" transform="translate(128,52)"/>
<path d="M0 0 C0.763125 0.474375 1.52625 0.94875 2.3125 1.4375 C6.21205534 3.70468334 8.63386674 2.81402484 13 2 C12.125 9.75 12.125 9.75 11 12 C10.7677354 14.71262116 10.58063765 17.40773126 10.4375 20.125 C10.39431641 20.87910156 10.35113281 21.63320313 10.30664062 22.41015625 C10.2005168 24.27321888 10.09974999 26.13658524 10 28 C5.21875 27.21875 5.21875 27.21875 3.25 25.25 C1.89615784 22.81308412 1.38181347 20.74905699 1 18 C-1.31 20.31 -3.62 22.62 -6 25 C-8.475 24.01 -8.475 24.01 -11 23 C-11.77948913 15.4071985 -10.82546739 10.49590986 -6.80078125 3.99609375 C-4.67853334 1.64366711 -3.05404625 0.79287739 0 0 Z M-2 8 C-3.42944945 10.35438733 -4.08661261 11.48032433 -3.625 14.25 C-3.41875 14.8275 -3.2125 15.405 -3 16 C-0.85432087 14.27144074 -0.85432087 14.27144074 1 12 C0.86358623 9.78141747 0.86358623 9.78141747 0 8 C-0.66 8 -1.32 8 -2 8 Z " fill="#000000" transform="translate(115,20)"/>
<path d="M0 0 C1.875 1.5 1.875 1.5 3 3 C3.78375 2.505 4.5675 2.01 5.375 1.5 C8 0 8 0 10 0 C9.85831863 1.43791516 9.71148957 2.8753237 9.5625 4.3125 C9.48128906 5.11300781 9.40007813 5.91351563 9.31640625 6.73828125 C9 9 9 9 8 12 C7.77281504 14.56634861 7.58391816 17.11678107 7.4375 19.6875 C7.39431641 20.38939453 7.35113281 21.09128906 7.30664062 21.81445312 C7.2008264 23.54275206 7.09993419 25.2713511 7 27 C2.25 26.25 2.25 26.25 0 24 C-0.71927295 21.68234271 -1.3909893 19.34904126 -2 17 C-2.53625 17.804375 -3.0725 18.60875 -3.625 19.4375 C-6 22 -6 22 -9.125 22.9375 C-10.548125 22.9684375 -10.548125 22.9684375 -12 23 C-14.35020498 20.64979502 -14.31914802 20.08090378 -14.375 16.875 C-14.23521235 10.67441933 -11.77513943 6.36685258 -8.125 1.5 C-5.23324472 -0.54123902 -3.46281138 -0.51573787 0 0 Z M-4 6 C-5.62507196 8.8331162 -5.62507196 8.8331162 -7 12 C-6.67 12.99 -6.34 13.98 -6 15 C-3.83358335 13.33454661 -3.83358335 13.33454661 -2 11 C-2.14025199 8.29294488 -2.14025199 8.29294488 -3 6 C-3.33 6 -3.66 6 -4 6 Z " fill="#000000" transform="translate(43,25)"/>
<path d="M0 0 C0.33 0.66 0.66 1.32 1 2 C1.66 1.34 2.32 0.68 3 0 C5.625 0.375 5.625 0.375 8 1 C8.33 2.65 8.66 4.3 9 6 C8.45730469 6.30292969 7.91460937 6.60585938 7.35546875 6.91796875 C1.49220244 10.32964327 1.49220244 10.32964327 -2 16 C-2.4999812 18.67989926 -2.76912071 21.27562434 -3 24 C-4.32 24 -5.64 24 -7 24 C-9 22 -9 22 -9.265625 19.71484375 C-9.19602401 7.34326697 -9.19602401 7.34326697 -7 2 C-4 0 -4 0 0 0 Z " fill="#000000" transform="translate(96,22)"/>
<path d="M0 0 C0.99 0.495 0.99 0.495 2 1 C2 1.99 2 2.98 2 4 C1.34 4 0.68 4 0 4 C0 2.68 0 1.36 0 0 Z " fill="#000000" transform="translate(126,32)"/>
</svg>
