<?xml version="1.0" encoding="UTF-8"?>
<svg version="1.1" xmlns="http://www.w3.org/2000/svg" width="31" height="36">
<path d="M0 0 C2.82642623 3.24207715 4.48712455 6.14833751 5.125 10.4375 C4.68359375 13.00390625 4.68359375 13.00390625 4 15.625 C3.29121953 18.10292099 3.29121953 18.10292099 3.125 20.4375 C5.35476163 23.41869541 5.35476163 23.41869541 8.125 25.4375 C8.125 26.4275 8.125 27.4175 8.125 28.4375 C3.46704276 27.80804632 3.46704276 27.80804632 1.625 25.8125 C1.13 25.35875 0.635 24.905 0.125 24.4375 C-2.18245009 24.73079272 -2.18245009 24.73079272 -4.875 25.4375 C-11.33321314 25.95832364 -14.59766187 25.26615707 -19.875 21.4375 C-23.34405607 17.63272883 -23.338966 13.74377255 -23.1484375 8.8046875 C-22.76869337 5.5171883 -22.16025735 3.86558594 -19.875 1.4375 C-13.43910369 -3.2761142 -7.0347258 -3.82322054 0 0 Z M-16.875 4.4375 C-18.82715511 6.92206105 -18.90868661 8.70218047 -19.3125 11.875 C-19.15182043 15.5367496 -19.15182043 15.5367496 -16.8125 18.3125 C-13.29809156 20.85483802 -11.19999429 21.4375 -6.875 21.4375 C-3.30112398 19.84911066 -2.06410428 18.72115642 0.125 15.4375 C0.80363934 9.53344237 0.80363934 9.53344237 -2 4.5 C-7.47268315 0.5739447 -11.27766733 0.74834892 -16.875 4.4375 Z " fill="#000000" transform="translate(22.875,2.5625)"/>
</svg>
