<?xml version="1.0" encoding="UTF-8"?>
<svg version="1.1" xmlns="http://www.w3.org/2000/svg" width="26" height="34">
<path d="M0 0 C2.8100346 1.79363911 4.50940468 3.01880935 6 6 C6.51899581 10.49796366 6.31754808 12.49565893 3.875 16.375 C0.65746055 19.31275341 -0.67648864 20.08823493 -5 20 C-8.13859582 18.8307192 -10.3800129 17.51998918 -12.9375 15.375 C-14.65939514 11.52605792 -14.17838725 7.98895062 -13 4 C-9.47226097 -0.3829485 -5.33396594 -1.09912025 0 0 Z M-8.9375 5.6875 C-10.28233625 8.61449654 -10.03115662 9.98584989 -9 13 C-7.12061828 15.29827312 -7.12061828 15.29827312 -4.0625 15.3125 C-1.07221854 15.21972348 -1.07221854 15.21972348 0.9375 13.875 C2.27406292 11.9136096 2.27406292 11.9136096 1.8125 8.9375 C1.23351637 5.90484132 1.23351637 5.90484132 -1 4 C-5.35764206 3.4433159 -5.35764206 3.4433159 -8.9375 5.6875 Z " fill="#000000" transform="translate(17,0)"/>
<path d="M0 0 C0.69867188 -0.01933594 1.39734375 -0.03867187 2.1171875 -0.05859375 C6.02820403 -0.02169737 7.86397143 0.51999236 10.98046875 2.92578125 C13.5423764 6.34991701 13.40962984 8.44677566 13 12.625 C11.68 12.625 10.36 12.625 9 12.625 C8.34 10.315 7.68 8.005 7 5.625 C2.38 5.625 -2.24 5.625 -7 5.625 C-7.66 7.935 -8.32 10.245 -9 12.625 C-10.32 12.625 -11.64 12.625 -13 12.625 C-13.40962984 8.44677566 -13.5423764 6.34991701 -10.98046875 2.92578125 C-7.29222939 0.07863448 -4.47952456 -0.12397208 0 0 Z " fill="#000000" transform="translate(13,21.375)"/>
</svg>
